<svg xmlns="http://www.w3.org/2000/svg" width="600" height="200" viewBox="0 0 600 200" version="1.1"><path d="M 29.415 44 C 29.415 54.175, 29.564 58.337, 29.745 53.250 C 29.927 48.162, 29.927 39.837, 29.745 34.750 C 29.564 29.662, 29.415 33.825, 29.415 44 M 393.250 26.739 C 396.413 26.937, 401.587 26.937, 404.750 26.739 C 407.913 26.541, 405.325 26.378, 399 26.378 C 392.675 26.378, 390.087 26.541, 393.250 26.739 M 298.286 63.500 C 298.294 66.250, 298.488 67.256, 298.718 65.736 C 298.947 64.216, 298.941 61.966, 298.704 60.736 C 298.467 59.506, 298.279 60.750, 298.286 63.500 M 29.241 117.250 L 29 172 20.018 172 L 11.037 172 10.740 148.750 L 10.442 125.500 10.471 149 L 10.500 172.500 19.767 172.788 C 26.618 173, 29.162 172.740, 29.527 171.788 C 29.798 171.079, 29.899 146.200, 29.751 116.500 L 29.482 62.500 29.241 117.250 M 70.450 117 C 70.450 135.975, 70.584 143.738, 70.748 134.250 C 70.913 124.762, 70.913 109.237, 70.748 99.750 C 70.584 90.262, 70.450 98.025, 70.450 117 M 156.442 118 C 156.442 134.225, 156.580 140.862, 156.748 132.750 C 156.916 124.637, 156.916 111.362, 156.748 103.250 C 156.580 95.137, 156.442 101.775, 156.442 118 M 390.797 102.745 C 395.361 102.930, 402.561 102.929, 406.797 102.742 C 411.034 102.555, 407.300 102.404, 398.500 102.405 C 389.700 102.406, 386.234 102.559, 390.797 102.745 M 387.306 121.747 C 393.800 121.922, 404.150 121.921, 410.306 121.746 C 416.463 121.571, 411.150 121.428, 398.500 121.429 C 385.850 121.429, 380.813 121.573, 387.306 121.747 M 590.252 130.500 C 590.263 132.700, 590.468 133.482, 590.707 132.238 C 590.946 130.994, 590.937 129.194, 590.687 128.238 C 590.437 127.282, 590.241 128.300, 590.252 130.500 M 590.252 138.500 C 590.263 140.700, 590.468 141.482, 590.707 140.238 C 590.946 138.994, 590.937 137.194, 590.687 136.238 C 590.437 135.282, 590.241 136.300, 590.252 138.500 M 55.784 172.738 C 58.689 172.941, 63.189 172.939, 65.784 172.734 C 68.378 172.528, 66 172.363, 60.500 172.365 C 55 172.368, 52.878 172.536, 55.784 172.738" stroke="none" fill="#f8f4f4" fill-rule="evenodd"/><path d="M 11 99 L 11 172 19.983 172 L 28.967 172 29.233 117.250 C 29.380 87.138, 29.377 54.288, 29.227 44.250 L 28.955 26 19.977 26 L 11 26 11 99 M 50.998 75.750 C 50.996 103.112, 50.700 135.963, 50.338 148.750 L 49.681 172 60.290 172 L 70.899 172 70.305 135.750 C 69.631 94.602, 70.490 67.330, 72.397 69.282 C 73.051 69.952, 74.739 72.525, 76.148 75 C 78.874 79.788, 85.333 90.502, 87 93 C 88.736 95.602, 95.186 106.316, 97.836 111 C 99.236 113.475, 100.660 115.725, 101 116 C 101.340 116.275, 102.764 118.525, 104.164 121 C 107.078 126.151, 113.496 136.775, 115.039 139 C 116.297 140.815, 119.556 146.280, 124.582 155 C 126.642 158.575, 128.644 161.725, 129.030 162 C 129.416 162.275, 130.685 164.382, 131.851 166.682 C 133.017 168.982, 134.494 171.188, 135.134 171.583 C 136.557 172.462, 150.552 173.091, 154 172.429 L 156.500 171.950 156.704 98.975 L 156.907 26 146.962 26 L 137.017 26 136.759 80.725 L 136.500 135.451 131.195 126.475 C 128.277 121.539, 124.114 114.642, 121.945 111.150 C 119.775 107.657, 118 104.635, 118 104.434 C 118 104.234, 115.525 100.233, 112.500 95.544 C 109.475 90.855, 107 86.767, 107 86.461 C 107 86.154, 105.178 83.160, 102.951 79.807 C 100.724 76.454, 98.186 72.313, 97.311 70.605 C 96.437 68.897, 95.397 67.275, 95 67 C 94.603 66.725, 93.478 64.925, 92.500 63 C 91.522 61.075, 90.394 59.275, 89.995 59 C 89.595 58.725, 88.286 56.700, 87.084 54.500 C 85.883 52.300, 83.460 48.137, 81.700 45.249 C 79.940 42.362, 76.813 37.232, 74.750 33.850 C 72.688 30.468, 71 27.318, 71 26.850 C 71 26.383, 66.500 26, 61 26 L 51 26 50.998 75.750 M 178 99.500 L 178 173 188 173 L 198 173 198 116.286 C 198 68.176, 198.208 59.794, 199.372 61.036 C 200.127 61.841, 205.166 69.025, 210.571 77 C 215.975 84.975, 223.035 95.325, 226.259 100 C 229.483 104.675, 233.966 111.313, 236.222 114.750 L 240.323 121 248.126 121 C 255.201 121, 256.040 120.790, 257.115 118.750 C 257.766 117.513, 258.570 116.275, 258.900 116 C 259.230 115.725, 261.739 112.125, 264.475 108 C 267.211 103.875, 269.686 100.275, 269.975 100 C 270.264 99.725, 272.746 96.125, 275.491 92 C 278.236 87.875, 280.851 84.050, 281.302 83.500 C 281.753 82.950, 282.883 81.304, 283.811 79.843 C 288.296 72.787, 297.070 60.075, 297.743 59.658 C 298.159 59.401, 298.355 84.797, 298.177 116.095 L 297.854 173 307.927 173 L 318 173 318 99.500 L 318 26 307.099 26 L 296.198 26 293.849 29.703 C 292.557 31.739, 290.825 34.372, 290 35.554 C 289.175 36.735, 287.610 39.006, 286.523 40.601 C 285.436 42.195, 284.305 43.725, 284.011 44 C 283.717 44.275, 280.029 49.675, 275.817 56 C 271.604 62.325, 266.556 69.750, 264.598 72.500 C 259.925 79.064, 259.266 80.014, 257.224 83.138 C 251.994 91.140, 248.455 96, 247.858 96 C 247.488 96, 244.555 92.124, 241.342 87.386 C 238.129 82.648, 234.825 77.781, 234 76.571 C 233.175 75.360, 231.498 72.824, 230.274 70.935 C 226.889 65.712, 225.681 63.959, 223.500 61.103 C 222.400 59.663, 220.931 57.588, 220.236 56.492 C 216.599 50.763, 215.040 48.405, 214.288 47.500 C 213.832 46.950, 210.390 41.888, 206.640 36.250 L 199.822 26 188.911 26 L 178 26 178 99.500 M 386.708 29.250 C 386.420 30.488, 383.858 38.025, 381.016 46 C 373.929 65.885, 369.059 79.922, 368.007 83.500 C 367.521 85.150, 365.763 90.325, 364.100 95 C 358.261 111.414, 346.848 144.531, 346.007 147.500 C 345.540 149.150, 343.979 153.650, 342.539 157.500 C 341.098 161.350, 339.306 166.412, 338.558 168.750 L 337.196 173 347.848 172.986 L 358.500 172.971 362.276 161.736 C 364.353 155.556, 366.247 149.825, 366.485 149 C 366.723 148.175, 368.307 143.675, 370.004 139 C 371.702 134.325, 373.813 128.363, 374.697 125.750 L 376.304 121 398.652 121 C 410.943 121, 421 121.128, 421 121.285 C 421 121.441, 421.965 124.254, 423.144 127.535 C 424.323 130.816, 426.826 137.775, 428.706 143 C 430.586 148.225, 432.487 153.909, 432.930 155.632 C 433.373 157.355, 434.046 159.265, 434.425 159.878 C 434.804 160.491, 435.295 161.782, 435.517 162.746 C 435.739 163.711, 436.571 166.300, 437.365 168.500 L 438.809 172.500 448.080 172.790 C 459.966 173.161, 460.389 173.001, 458.630 168.782 C 456.888 164.605, 455.053 159.337, 454.004 155.500 C 453.553 153.850, 451.764 148.675, 450.028 144 C 448.293 139.325, 446.486 134.150, 446.011 132.500 C 445.537 130.850, 442.388 121.625, 439.014 112 C 435.639 102.375, 432.497 93.150, 432.031 91.500 C 431.565 89.850, 429.764 84.675, 428.028 80 C 426.293 75.325, 424.511 70.091, 424.069 68.368 C 423.626 66.645, 422.920 64.680, 422.500 64 C 422.080 63.320, 421.387 61.355, 420.960 59.632 C 420.533 57.909, 418.764 52.675, 417.028 48 C 415.293 43.325, 413.491 38.150, 413.025 36.500 C 412.558 34.850, 411.587 32.038, 410.869 30.250 L 409.562 27 398.397 27 C 387.642 27, 387.214 27.082, 386.708 29.250 M 518.500 28.189 C 511.772 29.699, 506.548 31.306, 505.550 32.174 C 505.028 32.628, 504.031 33, 503.335 33 C 500.545 33, 487.131 42.221, 481.495 48.014 C 473.394 56.339, 473 56.775, 473 57.409 C 473 57.713, 471.389 60.480, 469.419 63.559 C 462.840 73.844, 459.755 86.315, 459.919 101.971 C 460.084 117.870, 464.475 130.985, 474.117 144.382 C 481.619 154.805, 497.415 166.657, 507.638 169.532 C 509.212 169.975, 510.725 170.402, 511 170.481 C 523.791 174.159, 541.164 174.327, 551.858 170.876 C 564.853 166.682, 582.323 155.002, 587.657 146.943 C 590.057 143.316, 590.163 142.445, 590.681 122.092 L 591.218 101 571.109 101 L 551 101 551 111 L 551 121 561 121 L 571 121 571 128.411 L 571 135.822 565.950 140.161 C 559.783 145.460, 550.147 150.571, 543.701 151.964 C 536.594 153.498, 524.111 153.221, 517.932 151.392 C 507.129 148.194, 493.827 138.759, 488.478 130.500 C 482.432 121.167, 479.619 111.182, 479.743 99.500 C 479.853 89.221, 481.647 82.867, 487.239 72.960 C 500.420 49.608, 527.715 41.138, 554.040 52.231 C 555.986 53.051, 558.236 54.347, 559.040 55.111 C 559.843 55.875, 563.087 58.467, 566.250 60.872 C 569.413 63.276, 572 65.638, 572 66.122 C 572 68.019, 574.705 66.784, 579 62.926 C 581.475 60.703, 584.513 58.183, 585.750 57.327 C 586.987 56.471, 588 55.381, 588 54.906 C 588 53.555, 573.672 40, 572.244 40 C 571.921 40, 570.915 39.328, 570.007 38.506 C 567.076 35.854, 554.681 30.326, 548 28.691 C 540.950 26.967, 525.149 26.698, 518.500 28.189 M 397.461 59 C 397 60.375, 396.513 61.950, 396.379 62.500 C 396.246 63.050, 395.184 65.975, 394.020 69 C 391.170 76.403, 383 100.929, 383 102.080 C 383 102.601, 389.783 103, 398.617 103 L 414.233 103 413.686 100.750 C 412.464 95.724, 410.949 91.018, 407.488 81.500 C 405.488 76, 403.487 70.150, 403.042 68.500 C 402.597 66.850, 401.348 63.475, 400.266 61 C 398.370 56.659, 398.271 56.588, 397.461 59" stroke="none" fill="#f4f4f4" fill-rule="evenodd"/></svg>