<svg xmlns="http://www.w3.org/2000/svg" width="1118" height="1116" viewBox="0 0 1118 1116" version="1.1"><path d="M 484.929 2.292 C 472.099 6.666, 461.155 15.504, 453.058 28.032 C 447.436 36.729, 444.902 44.818, 444.281 56.050 C 443.134 76.765, 448.425 90.669, 462.909 105 C 470.535 112.545, 473.285 114.455, 487.391 122 C 517.977 138.360, 535.011 151, 557 173.653 C 574.908 192.101, 585.686 207.396, 597.992 231.823 C 612.415 260.451, 622.804 295.628, 626.082 326.937 C 627.679 342.194, 626.762 369.272, 624.149 384 C 621.434 399.305, 616.179 417.232, 609.370 434.417 C 600.938 455.701, 600.924 462.934, 609.304 468.044 C 613.122 470.372, 619.939 470.600, 623.935 468.534 C 628.231 466.312, 633.833 459.398, 640.664 447.887 C 648.733 434.290, 661.122 409.458, 665.663 397.781 C 675.610 372.203, 684.619 336.007, 686.977 312.144 C 688.483 296.895, 688.243 260.563, 686.538 245.994 C 679.688 187.430, 658.664 135.518, 621.761 86.045 C 604.308 62.648, 558.541 18.969, 539.782 7.807 C 528.890 1.326, 523.142 -0.004, 506.161 0.026 C 493.643 0.048, 490.540 0.379, 484.929 2.292 M 745.502 40.136 C 732.888 43.088, 717.394 54.751, 708.985 67.624 C 701.849 78.550, 699.531 86.912, 699.594 101.500 C 699.668 118.430, 701.097 122.241, 717.224 148.523 C 724.272 160.010, 736.628 184.713, 741.440 196.939 C 746.185 208.997, 751.382 229.269, 753.645 244.550 C 754.954 253.393, 755.422 262.870, 755.445 281 C 755.479 308.513, 754.339 318.575, 748.461 342.611 C 734.360 400.277, 709.756 439.575, 665.491 475.132 C 649.159 488.252, 646.895 490.756, 646.259 496.398 C 645.618 502.082, 647.213 506.102, 651.658 510.005 C 654.554 512.547, 655.892 513, 660.515 513 C 665.178 513, 667.579 512.171, 677.230 507.228 C 707.869 491.536, 737.958 469.207, 761.970 444.343 C 790.734 414.557, 810.161 385.628, 826.165 348.746 C 853.689 285.317, 858.986 213.071, 841.395 141 C 836.276 120.025, 826.820 92.404, 819.827 78.001 C 814.399 66.821, 812.900 64.652, 805.629 57.454 C 796.264 48.183, 786.777 42.696, 776.257 40.467 C 768.747 38.875, 751.676 38.692, 745.502 40.136 M 250.500 92.886 C 227.438 99.589, 210.971 115.518, 204.380 137.500 C 201.625 146.689, 202.029 162.252, 205.284 172.284 C 211.130 190.304, 226.224 205.866, 244.940 213.168 C 250.154 215.202, 252.836 215.381, 288 216.046 C 322.503 216.698, 326.579 216.962, 339 219.346 C 380.867 227.382, 416.545 243.564, 448.402 268.965 C 468.240 284.782, 493.822 312.021, 506.080 330.379 C 524.659 358.200, 534.879 386.222, 541.498 427.488 C 542.909 436.281, 544.836 445.027, 545.781 446.924 C 548.429 452.235, 552.231 454.500, 558.500 454.500 C 565.192 454.500, 568.572 452.233, 571.999 445.448 C 574.302 440.887, 574.526 439.218, 574.855 424.108 C 575.448 396.858, 572.288 363.602, 566.965 341.070 C 555.691 293.351, 535.806 251.573, 506.958 215 C 496.363 201.566, 467.302 172.508, 455 163.046 C 405.213 124.752, 345.663 100.443, 282.038 92.442 C 267.260 90.583, 257.975 90.714, 250.500 92.886 M 949.500 201.956 C 937.898 204.465, 927.659 210.537, 917.867 220.718 C 910.576 228.298, 906.869 234.116, 903.107 243.880 C 900.585 250.427, 900.550 250.912, 899.941 288 C 899.368 322.954, 899.148 326.417, 896.701 339 C 890.126 372.817, 878.161 402.070, 859.526 429.889 C 848.423 446.465, 837.353 459.503, 820.377 476 C 782.065 513.231, 743.495 531.893, 688.023 540.037 C 672.072 542.379, 668.677 543.466, 665.063 547.385 C 661.422 551.332, 660.967 560.240, 664.165 564.946 C 668.753 571.696, 671.368 572.458, 691.289 572.848 C 723.676 573.481, 754.709 570.634, 777.301 564.956 C 814.358 555.643, 844.799 543.192, 871.522 526.417 C 952.241 475.745, 1005.095 394.153, 1022.075 294 C 1025.391 274.446, 1025.401 254.249, 1022.100 244.172 C 1016.263 226.356, 1001.669 211.363, 983.361 204.375 C 977.716 202.221, 974.462 201.698, 965 201.424 C 958.675 201.241, 951.700 201.480, 949.500 201.956 M 185 266.985 C 150.311 271.594, 116.660 280.637, 85.779 293.647 C 72.059 299.427, 65.014 304.040, 57.344 312.268 C 30.041 341.559, 35.840 385.843, 69.859 407.831 C 79.977 414.370, 88.296 416.506, 103.500 416.466 C 120.018 416.424, 125.290 414.653, 144 402.866 C 174.438 383.690, 196.479 374.063, 227.369 366.455 C 247.083 361.599, 258.458 360.658, 289.787 361.295 C 313.084 361.768, 318.064 362.159, 328.735 364.359 C 357.861 370.362, 377.576 376.813, 399.500 387.511 C 430.089 402.438, 452.374 420.863, 477.498 452 C 490.411 468.004, 493.960 471, 500 471 C 506.583 471, 513.828 464.700, 514.697 458.222 C 515.025 455.778, 514.585 452.266, 513.568 449.203 C 510.032 438.559, 486.212 400.189, 472.468 383 C 463.054 371.225, 433.595 342.011, 421.298 332.253 C 380.288 299.714, 332.446 278.577, 278 268.944 C 254.773 264.834, 208.515 263.860, 185 266.985 M 245.123 430.093 C 193.361 436.947, 147.846 453.916, 105.500 482.149 C 84.740 495.990, 75.645 503.346, 58.133 520.460 C 32.886 545.133, 12.538 569.517, 6.337 582.529 C -10.588 618.047, 8.700 660.773, 46.124 670.662 C 56.355 673.365, 71.585 672.891, 81.500 669.561 C 98.793 663.752, 111.659 651.847, 121.757 632.312 C 136.321 604.135, 148.896 586.269, 167.988 566.629 C 205.938 527.591, 245.649 506.767, 307.680 493.374 C 317.835 491.182, 322.837 490.748, 343.181 490.297 C 358.247 489.964, 370.506 490.196, 376.881 490.938 C 394.585 492.996, 415.534 498.842, 440.146 508.593 C 447.651 511.567, 455.308 514, 457.162 514 C 464.607 514, 471.947 506.647, 471.984 499.151 C 472.025 490.812, 466.519 485.370, 446.693 474.155 C 407.231 451.830, 377.444 440.720, 336.500 433.054 C 307.409 427.607, 272.453 426.474, 245.123 430.093 M 1044.500 443.019 C 1033.972 445.125, 1019.552 452.406, 1012.149 459.355 C 1007.561 463.662, 1002.540 471.232, 994.476 486 C 978.467 515.317, 967.159 530.832, 947.014 551.111 C 926.101 572.165, 906.561 586.106, 880.500 598.566 C 854.888 610.811, 826.189 619.464, 797.804 623.499 C 784.211 625.431, 754.375 625.429, 739.624 623.495 C 724.759 621.547, 704.362 616.363, 690.500 611.013 C 667.697 602.210, 662.880 600.753, 658.282 601.272 C 650.814 602.113, 645.358 609.612, 646.277 617.769 C 647.159 625.588, 655.140 632.081, 681 646.017 C 755.752 686.301, 833.731 696.884, 912 677.367 C 981.687 659.990, 1041.150 621.145, 1092.895 559.198 C 1104.672 545.099, 1110.207 536.644, 1114.085 526.829 C 1117.195 518.959, 1117.379 517.784, 1117.428 505.500 C 1117.469 495.347, 1117.073 491.295, 1115.617 487 C 1109.738 469.648, 1098.630 456.366, 1083.942 449.126 C 1071.165 442.827, 1056.677 440.584, 1044.500 443.019 M 385 542.614 C 340.794 547.181, 294.256 561.261, 260.246 580.359 C 203.317 612.327, 158.077 659.744, 129.039 717.877 C 113.120 749.747, 102.409 783.364, 95.922 821.816 C 90.166 855.926, 92.950 873.344, 106.913 890.601 C 122.428 909.776, 146.905 918.035, 170.404 912.025 C 180.842 909.355, 189.136 904.754, 197.201 897.160 C 207.983 887.008, 215.134 874.048, 216.973 861.332 C 217.516 857.575, 217.969 841.888, 217.980 826.474 C 217.991 811.059, 218.471 794.634, 219.047 789.974 C 224.527 745.648, 243.404 701.850, 272.697 665.500 C 282.588 653.227, 309.611 626.666, 320.645 618.373 C 351.999 594.807, 386.163 581.126, 428.884 575.028 C 450.517 571.941, 455.075 569.260, 455.777 559.213 C 456.110 554.461, 455.783 552.920, 453.835 550.054 C 452.547 548.159, 449.920 545.684, 447.997 544.554 C 444.710 542.623, 442.821 542.493, 416.500 542.376 C 401.100 542.308, 386.925 542.415, 385 542.614 M 442.500 606.637 C 413.888 621.367, 385.117 642.021, 362.639 663.967 C 328.736 697.067, 306.898 728.990, 289.944 770.233 C 261.920 838.409, 258.700 913.109, 280.511 989.019 C 285.582 1006.666, 292.506 1025.247, 298.962 1038.533 C 304.128 1049.163, 305.670 1051.383, 312.194 1057.579 C 324.920 1069.668, 337.150 1074.978, 354 1075.730 C 366.377 1076.283, 374.932 1074.624, 384.935 1069.733 C 394.186 1065.209, 406.596 1052.832, 411.238 1043.500 C 417.341 1031.232, 418.447 1026.708, 418.451 1014 C 418.457 997.793, 416.672 992.722, 402.939 969.947 C 373.372 920.909, 362 883.471, 362 835.169 C 362 784.278, 376.965 732.013, 402.709 693 C 415.989 672.875, 430.550 657.383, 453 639.497 C 459.325 634.458, 466.237 628.403, 468.361 626.042 C 472.056 621.933, 472.204 621.503, 471.809 616.033 C 471.125 606.573, 466.386 602.095, 457 602.037 C 452.383 602.009, 450.056 602.747, 442.500 606.637 M 496.098 644.726 C 490.504 645.781, 483.198 655.800, 469.005 681.878 C 448.552 719.460, 434.460 765.022, 430.925 805 C 429.229 824.181, 430.247 863.590, 432.883 880.789 C 445.935 965.957, 494.027 1044.018, 567.681 1099.590 C 577.019 1106.636, 587.997 1112.508, 595.460 1114.450 C 607.454 1117.570, 626.605 1115.816, 638.500 1110.508 C 654.617 1103.316, 667.944 1087.065, 672.600 1068.928 C 674.670 1060.867, 674.082 1043.009, 671.501 1035.500 C 664.633 1015.521, 655.206 1005.799, 629.655 992.343 C 563.487 957.497, 521.788 906.222, 501.170 834.353 C 493.118 806.284, 490.411 785.773, 491.300 759.565 C 492.291 730.368, 497.211 708.651, 510.003 677 C 512.940 669.735, 514.401 664.474, 514.746 659.924 C 515.219 653.681, 515.088 653.170, 512.170 649.846 C 510.438 647.874, 507.387 645.833, 505.182 645.173 C 501.186 643.975, 500.304 643.932, 496.098 644.726 M 613 644.704 C 610.683 645.547, 605.977 650.201, 604.411 653.200 C 601.262 659.228, 603.350 666.109, 613.910 684.500 C 622.345 699.191, 637.289 721.528, 645.685 731.997 C 666.546 758.005, 701.324 788.646, 728.168 804.666 C 765.822 827.138, 803.917 840.473, 851 847.664 C 867.462 850.178, 919.269 850.162, 936.500 847.637 C 977.817 841.583, 1030.050 825.366, 1049.222 812.641 C 1061.148 804.725, 1071.368 790.727, 1075.609 776.500 C 1076.906 772.150, 1077.389 767.200, 1077.367 758.500 C 1077.339 748.132, 1076.990 745.583, 1074.795 739.758 C 1070.991 729.665, 1066.282 722.554, 1058.500 715.155 C 1045.846 703.123, 1032.782 697.991, 1014.856 698.012 C 998.523 698.031, 993.073 699.969, 971.500 713.431 C 955.442 723.451, 931.990 735.238, 917.643 740.498 C 870.511 757.781, 815.206 758.973, 761.500 743.863 C 731.899 735.535, 703.174 721.398, 681.500 704.491 C 671.749 696.884, 650.229 674.910, 639.888 662 C 635.702 656.775, 630.201 650.587, 627.661 648.250 C 623.676 644.581, 622.460 644.011, 618.772 644.079 C 616.423 644.122, 613.825 644.404, 613 644.704 M 553.418 660.914 C 550.461 662.188, 546.401 667.303, 544.836 671.725 C 542.811 677.447, 543.171 722.334, 545.391 741 C 549.268 773.590, 560.251 811.512, 574.613 841.897 C 596.048 887.242, 632.775 930.543, 676 961.430 C 694.485 974.639, 719.692 988.379, 743.076 997.991 C 788.110 1016.503, 848.104 1027.812, 868.500 1021.635 C 879.241 1018.382, 889.767 1012.168, 897.440 1004.550 C 909.616 992.462, 915.207 978.708, 915.171 960.936 C 915.134 943.205, 910.502 931.889, 897.779 918.448 C 892.241 912.598, 888.050 909.223, 883.076 906.609 C 869.537 899.495, 870.989 899.711, 831.500 898.914 C 792.959 898.137, 781.326 896.931, 761 891.609 C 717.706 880.273, 682.364 859.898, 648.125 826.533 C 604.558 784.079, 584.850 745.574, 576.455 686.500 C 573.571 666.210, 570.410 660.937, 560.772 660.343 C 557.872 660.164, 554.563 660.421, 553.418 660.914" stroke="none" fill="#000000" fill-rule="evenodd"/></svg>