<svg xmlns="http://www.w3.org/2000/svg" width="800" height="200" viewBox="0 0 800 200" version="1.1"><path d="M 79.655 17.829 C 77.818 19.858, 77.449 26.101, 78.994 28.989 C 79.541 30.011, 82.441 32.250, 85.439 33.965 C 100.819 42.765, 108.375 61.381, 103.198 77.722 C 101.530 82.988, 101.440 84.120, 102.614 85.094 C 104.518 86.675, 106.524 84.873, 109.586 78.830 C 119.284 59.693, 115.386 37.279, 99.663 21.761 L 93.825 16 87.568 16 C 82.775 16, 80.922 16.428, 79.655 17.829 M 121.110 21.346 C 118.298 22.963, 116.085 26.606, 116.035 29.701 C 116.016 30.912, 117.688 35.133, 119.750 39.081 C 123.397 46.064, 123.500 46.551, 123.500 56.880 C 123.500 66.427, 123.216 68.106, 120.693 73.500 C 118.999 77.119, 115.881 81.383, 112.834 84.245 C 107.809 88.966, 106.947 92, 110.631 92 C 115.426 92, 129.874 79.144, 133.752 71.427 C 137.506 63.958, 139.343 56.629, 139.373 49 C 139.418 37.860, 135.919 25.667, 131.662 22.135 C 129.371 20.233, 123.772 19.815, 121.110 21.346 M 210.998 70.250 C 210.997 94.588, 210.699 127.680, 210.336 143.788 L 209.676 173.076 219.588 172.788 L 229.500 172.500 229.800 106.500 C 229.966 70.200, 229.815 37.237, 229.465 33.250 L 228.829 26 219.915 26 L 211 26 210.998 70.250 M 250.615 91.750 C 250.252 127.913, 249.691 160.721, 249.369 164.659 L 248.782 171.817 255.380 172.524 C 259.008 172.913, 264.007 172.926, 266.489 172.554 L 271 171.877 271.100 123.189 C 271.155 96.410, 271.501 73.424, 271.869 72.109 C 272.439 70.073, 274.617 73.150, 286.519 92.806 C 294.209 105.505, 306.894 126.381, 314.709 139.197 C 322.525 152.014, 330.124 164.619, 331.596 167.209 C 333.949 171.348, 334.772 171.992, 338.387 172.523 C 340.649 172.855, 345.650 172.986, 349.500 172.814 L 356.500 172.500 356.756 99.250 L 357.013 26 347.006 26 L 337 26 336.858 32.750 C 336.779 36.462, 336.442 60.532, 336.108 86.238 L 335.500 132.975 318.500 104.875 C 296.479 68.475, 296.331 68.232, 293.181 63.308 C 291.707 61.003, 286.033 51.665, 280.573 42.558 L 270.646 26 260.961 26 L 251.275 26 250.615 91.750 M 378 99.500 L 378 173 388 173 L 398 173 398.136 129.250 C 398.210 105.188, 398.548 80.120, 398.886 73.545 L 399.500 61.591 411.427 79.045 C 417.987 88.645, 427.142 102.030, 431.771 108.789 L 440.188 121.078 448.271 120.789 L 456.353 120.500 476.426 91.305 C 487.467 75.247, 496.871 61.751, 497.325 61.313 C 497.779 60.875, 498.004 85.826, 497.825 116.759 L 497.500 173.001 507.750 173 L 518 173 518 99.500 L 518 26 506.500 26 C 500.175 26, 495 26.383, 495 26.850 C 495 27.318, 491.266 33.055, 486.703 39.600 C 482.140 46.145, 471.699 61.288, 463.501 73.250 C 455.303 85.213, 448.253 95, 447.834 95 C 447.039 95, 433.323 75.221, 412.664 44.284 L 400.500 26.068 389.250 26.034 L 378 26 378 99.500 M 589.820 26.709 C 587.498 27.065, 586.808 28.078, 584.647 34.310 C 567.410 84.006, 537 172.329, 537 172.695 C 537 172.863, 541.888 173, 547.862 173 L 558.724 173 566.524 150.250 C 570.814 137.738, 574.894 126.129, 575.590 124.454 L 576.856 121.408 595.946 121.704 C 606.445 121.867, 616.325 122, 617.900 122 C 620.696 122, 620.897 122.376, 626.322 137.750 C 629.379 146.412, 633.370 157.885, 635.190 163.245 L 638.500 172.990 648.691 172.995 C 654.296 172.998, 659.104 172.640, 659.376 172.201 C 659.825 171.474, 655.891 159.705, 632.403 91.500 C 610.407 27.631, 610.384 27.569, 607.868 26.864 C 605.300 26.143, 594.146 26.048, 589.820 26.709 M 714 28.903 C 705.179 31.409, 699.073 34.196, 692.243 38.836 C 679.081 47.777, 667.425 62.900, 662.830 77 C 660.251 84.910, 659.126 107.697, 660.904 115.988 C 666.615 142.616, 688.110 165.124, 714 171.587 C 724.871 174.300, 742.162 174.136, 751.500 171.230 C 766.920 166.431, 786.236 152.410, 789.384 143.730 C 790.514 140.613, 790.994 134.437, 791.210 120.250 L 791.502 101 771.251 101 L 751 101 751 111 L 751 121 761 121 L 771 121 770.998 128.250 L 770.995 135.500 765.748 139.782 C 748.760 153.644, 728.117 156.356, 709.611 147.158 C 697.875 141.324, 690.952 134.736, 685.997 124.684 C 675.638 103.668, 679.084 80.673, 695.171 63.476 C 705.624 52.302, 718.839 47.265, 735 48.294 C 747.341 49.080, 754.147 51.806, 764.501 60.114 C 769.306 63.969, 773.755 66.924, 774.387 66.682 C 776.821 65.748, 788 55.761, 788 54.521 C 788 52.689, 776.651 42.381, 769.644 37.851 C 766.424 35.768, 760.124 32.631, 755.644 30.880 C 748.167 27.957, 746.395 27.670, 734 27.377 C 723.174 27.120, 719.212 27.423, 714 28.903 M 45.888 29.500 C 42.368 31.413, 40.471 36.164, 41.623 40.182 C 43.036 45.107, 46.342 46.743, 57.143 47.860 C 68.929 49.080, 75.173 51.951, 82.615 59.573 C 87.751 64.834, 91.980 73.254, 92.015 78.288 C 92.037 81.466, 93.451 83.252, 95.620 82.839 C 99.831 82.038, 97.962 65.707, 92.330 54.106 C 86.934 42.989, 73.373 32.714, 59.907 29.540 C 52.026 27.682, 49.247 27.674, 45.888 29.500 M 149.378 47.351 C 146.871 49.508, 146.593 50.478, 146.019 59.101 C 145.549 66.158, 144.743 69.914, 142.786 74.175 C 137.827 84.970, 128.292 92.682, 116.907 95.104 C 111.295 96.298, 109.824 97.378, 110.700 99.659 C 111.059 100.596, 113.237 101, 117.925 101 C 141.443 101, 160.541 84.069, 165.152 59.132 C 166.793 50.261, 163.324 45, 155.833 45 C 153.368 45, 151.189 45.794, 149.378 47.351 M 33.389 55.488 C 26.060 57.083, 19.451 60.289, 18.033 62.938 C 16.154 66.450, 16.803 71.894, 19.414 74.505 C 23.603 78.694, 26.482 78.723, 34.407 74.656 C 44.057 69.705, 51.295 68.340, 59.695 69.888 C 68.878 71.580, 74.713 74.608, 80.558 80.715 C 83.339 83.622, 86.166 86, 86.839 86 C 91.126 86, 87.636 77.961, 79.562 69.240 C 67.991 56.742, 50.953 51.668, 33.389 55.488 M 592.265 75.142 C 585.263 95.283, 583.522 100.871, 584.090 101.381 C 584.315 101.584, 591.079 101.963, 599.120 102.225 L 613.740 102.700 612.519 98.100 C 611.122 92.838, 600.180 61.192, 599.049 59.142 C 598.587 58.304, 595.988 64.434, 592.265 75.142 M 41 80.433 C 30.534 83.350, 16.275 93.703, 12.397 101.200 C 7.857 109.976, 16.586 119.503, 25.026 114.986 C 26.069 114.428, 28.895 110.920, 31.308 107.191 C 38.829 95.565, 47.924 90.099, 61.163 89.246 C 66.699 88.890, 70.150 89.204, 73.592 90.377 C 80.289 92.659, 82.214 92.518, 81.820 89.777 C 81.429 87.059, 75.890 83.745, 67.145 80.997 C 59.854 78.706, 48.106 78.453, 41 80.433 M 165.231 82.229 C 163.983 82.830, 161.647 85.612, 160.040 88.411 C 151.010 104.136, 132.771 111.578, 115.829 106.448 C 111.541 105.150, 109.636 104.964, 108.835 105.765 C 107.014 107.586, 108.638 109.783, 113.703 112.348 C 130.244 120.724, 149.067 119.813, 163.883 109.919 C 170.182 105.713, 176.051 99.638, 178.695 94.588 C 179.940 92.210, 180.009 90.972, 179.071 87.843 C 177.327 82.021, 170.994 79.452, 165.231 82.229 M 60.813 97.450 C 44.508 102.010, 31.548 115.070, 26.595 131.932 C 24.589 138.762, 24.550 145.912, 26.503 148.701 C 28.496 151.547, 33.997 153.333, 37.106 152.145 C 42.009 150.270, 43.437 147.402, 44.095 138.104 C 44.949 126.022, 48.268 118.849, 56.619 111.037 C 62.866 105.193, 63.771 104.750, 77 101.035 C 78.553 100.599, 79.500 99.607, 79.500 98.417 C 79.500 96.728, 78.669 96.479, 72.500 96.319 C 68.650 96.220, 63.391 96.729, 60.813 97.450 M 71.814 109.303 C 64.429 114.335, 57.194 123.358, 53.875 131.676 C 50.552 140.003, 50.500 157.728, 53.772 166.476 C 56.557 173.921, 58.600 176.002, 63.805 176.701 C 67.410 177.184, 68.271 176.883, 70.952 174.202 C 75.060 170.094, 74.927 166.311, 70.357 157.294 C 62.458 141.707, 65.332 124.641, 77.894 112.547 C 82.319 108.287, 83.264 105, 80.064 105 C 78.999 105, 75.287 106.936, 71.814 109.303 M 83.577 113.250 C 77.847 122.030, 74.399 135.924, 75.624 145.302 C 76.550 152.393, 79.408 160.403, 83.021 166.033 C 86.954 172.162, 97.013 181.714, 100.440 182.574 C 107.651 184.384, 114.157 178.200, 112.401 171.202 C 111.658 168.239, 110.188 166.719, 104.033 162.554 C 99.925 159.774, 95.126 155.602, 93.367 153.282 C 85.892 143.427, 83.475 129.027, 87.476 118.194 C 89.174 113.595, 89.240 112.763, 87.968 111.959 C 85.802 110.589, 85.198 110.767, 83.577 113.250 M 102.174 112.290 C 100.491 114.318, 104.636 121.537, 111.500 128.532 C 118.226 135.386, 126.886 140.211, 135.781 142.060 C 147.314 144.457, 165.876 140.955, 171.098 135.395 C 174.315 131.972, 174.316 126.030, 171.102 122.608 C 167.036 118.280, 164.144 118.380, 154.351 123.186 C 145.931 127.318, 145.180 127.499, 136.530 127.468 C 125.028 127.427, 117.848 124.447, 109.930 116.429 C 104.121 110.547, 103.774 110.362, 102.174 112.290 M 92.634 116.323 C 92.298 117.660, 92.422 121.846, 92.908 125.627 C 95.615 146.659, 109.227 162.117, 129.716 167.426 C 138.971 169.825, 142.631 169.523, 146.077 166.077 C 149.853 162.301, 150.030 157.377, 146.538 153.227 C 144.237 150.493, 143.476 150.262, 134.965 149.711 C 123.733 148.983, 115.745 145.588, 108.706 138.549 C 103.070 132.912, 100.430 128.107, 98.650 120.240 C 97.632 115.742, 96.907 114.434, 95.297 114.196 C 93.826 113.979, 93.071 114.582, 92.634 116.323" stroke="none" fill="#f4f4f4" fill-rule="evenodd"/></svg>